<mxfile host="app.diagrams.net" modified="2020-12-15T14:47:49.120Z" agent="5.0 (Windows NT 10.0; Win64; x64) AppleWebKit/537.36 (KHTML, like Gecko) Chrome/87.0.4280.88 Safari/537.36" etag="X38Bp1McTcymOE88svCj" version="14.0.1" type="github">
  <diagram id="bQ1npzmXao6sceOYmoz7" name="Page-1">
    <mxGraphModel dx="2473" dy="1296" grid="1" gridSize="10" guides="1" tooltips="1" connect="1" arrows="1" fold="1" page="0" pageScale="1" pageWidth="827" pageHeight="1169" math="0" shadow="1">
      <root>
        <mxCell id="0" />
        <mxCell id="1" parent="0" />
        <mxCell id="QcO9CsuUAXYOq_QOPMuR-10" style="edgeStyle=orthogonalEdgeStyle;rounded=0;orthogonalLoop=1;jettySize=auto;html=1;exitX=0.5;exitY=1;exitDx=0;exitDy=0;entryX=0.5;entryY=0;entryDx=0;entryDy=0;" edge="1" parent="1" source="mpLeAalImZek8zaXHOM3-1" target="mpLeAalImZek8zaXHOM3-2">
          <mxGeometry relative="1" as="geometry" />
        </mxCell>
        <mxCell id="mpLeAalImZek8zaXHOM3-1" value="&lt;h1&gt;&lt;font face=&quot;Comic Sans MS&quot; size=&quot;1&quot;&gt;&lt;b style=&quot;font-size: 24px&quot;&gt;Topic: shuttle bus&lt;/b&gt;&lt;/font&gt;&lt;/h1&gt;" style="rounded=0;whiteSpace=wrap;html=1;shadow=0;glass=0;sketch=0;fillColor=#dae8fc;strokeColor=#6c8ebf;" parent="1" vertex="1">
          <mxGeometry x="-300" y="-59" width="250" height="60" as="geometry" />
        </mxCell>
        <mxCell id="QcO9CsuUAXYOq_QOPMuR-11" style="edgeStyle=orthogonalEdgeStyle;rounded=0;orthogonalLoop=1;jettySize=auto;html=1;exitX=0.5;exitY=1;exitDx=0;exitDy=0;entryX=0.5;entryY=0;entryDx=0;entryDy=0;" edge="1" parent="1" source="mpLeAalImZek8zaXHOM3-2" target="mpLeAalImZek8zaXHOM3-3">
          <mxGeometry relative="1" as="geometry" />
        </mxCell>
        <mxCell id="mpLeAalImZek8zaXHOM3-2" value="&lt;h1&gt;&lt;font face=&quot;Comic Sans MS&quot;&gt;Raise questions&lt;/font&gt;&lt;br&gt;&lt;/h1&gt;" style="rounded=1;whiteSpace=wrap;html=1;" parent="1" vertex="1">
          <mxGeometry x="-300" y="40" width="250" height="60" as="geometry" />
        </mxCell>
        <mxCell id="QcO9CsuUAXYOq_QOPMuR-12" style="rounded=0;orthogonalLoop=1;jettySize=auto;html=1;exitX=0.25;exitY=1;exitDx=0;exitDy=0;entryX=0.5;entryY=0;entryDx=0;entryDy=0;" edge="1" parent="1" source="mpLeAalImZek8zaXHOM3-3" target="mpLeAalImZek8zaXHOM3-4">
          <mxGeometry relative="1" as="geometry" />
        </mxCell>
        <mxCell id="QcO9CsuUAXYOq_QOPMuR-13" style="rounded=0;orthogonalLoop=1;jettySize=auto;html=1;exitX=0.75;exitY=1;exitDx=0;exitDy=0;entryX=0.5;entryY=0;entryDx=0;entryDy=0;" edge="1" parent="1" source="mpLeAalImZek8zaXHOM3-3" target="mpLeAalImZek8zaXHOM3-5">
          <mxGeometry relative="1" as="geometry" />
        </mxCell>
        <mxCell id="mpLeAalImZek8zaXHOM3-3" value="&lt;h1&gt;&lt;font face=&quot;Comic Sans MS&quot;&gt;Design questionnaire&lt;/font&gt;&lt;br&gt;&lt;/h1&gt;" style="rounded=1;whiteSpace=wrap;html=1;" parent="1" vertex="1">
          <mxGeometry x="-310" y="130" width="270" height="70" as="geometry" />
        </mxCell>
        <mxCell id="QcO9CsuUAXYOq_QOPMuR-14" style="edgeStyle=orthogonalEdgeStyle;rounded=0;orthogonalLoop=1;jettySize=auto;html=1;exitX=1;exitY=0.5;exitDx=0;exitDy=0;startArrow=none;startFill=0;endArrow=none;endFill=0;" edge="1" parent="1" source="mpLeAalImZek8zaXHOM3-4" target="mpLeAalImZek8zaXHOM3-5">
          <mxGeometry relative="1" as="geometry">
            <Array as="points">
              <mxPoint x="-190" y="270" />
              <mxPoint x="-190" y="270" />
            </Array>
          </mxGeometry>
        </mxCell>
        <mxCell id="mpLeAalImZek8zaXHOM3-4" value="&lt;h1&gt;&lt;font face=&quot;Comic Sans MS&quot;&gt;Online survey&amp;nbsp;&lt;/font&gt;&lt;br&gt;&lt;/h1&gt;" style="rounded=1;whiteSpace=wrap;html=1;" parent="1" vertex="1">
          <mxGeometry x="-440" y="240" width="200" height="60" as="geometry" />
        </mxCell>
        <mxCell id="mpLeAalImZek8zaXHOM3-5" value="&lt;h1&gt;&lt;font face=&quot;Comic Sans MS&quot;&gt;Offline interview&lt;/font&gt;&lt;br&gt;&lt;/h1&gt;" style="rounded=1;whiteSpace=wrap;html=1;" parent="1" vertex="1">
          <mxGeometry x="-110" y="240" width="200" height="60" as="geometry" />
        </mxCell>
        <mxCell id="QcO9CsuUAXYOq_QOPMuR-16" style="edgeStyle=orthogonalEdgeStyle;rounded=0;orthogonalLoop=1;jettySize=auto;html=1;exitX=0.5;exitY=1;exitDx=0;exitDy=0;startArrow=none;startFill=0;" edge="1" parent="1" source="mpLeAalImZek8zaXHOM3-7" target="QcO9CsuUAXYOq_QOPMuR-1">
          <mxGeometry relative="1" as="geometry" />
        </mxCell>
        <mxCell id="mpLeAalImZek8zaXHOM3-7" value="&lt;h1&gt;&lt;font face=&quot;Comic Sans MS&quot;&gt;Raw data&amp;nbsp;&lt;/font&gt;&lt;br&gt;&lt;/h1&gt;" style="rounded=1;whiteSpace=wrap;html=1;" parent="1" vertex="1">
          <mxGeometry x="-275" y="324" width="200" height="60" as="geometry" />
        </mxCell>
        <mxCell id="mpLeAalImZek8zaXHOM3-10" value="&lt;h1&gt;&lt;font face=&quot;Comic Sans MS&quot; style=&quot;font-size: 20px&quot;&gt;analyse&lt;/font&gt;&lt;br&gt;&lt;/h1&gt;" style="rounded=1;whiteSpace=wrap;html=1;strokeColor=none;fillColor=none;" parent="1" vertex="1">
          <mxGeometry x="-220" y="493" width="180" height="50" as="geometry" />
        </mxCell>
        <mxCell id="QcO9CsuUAXYOq_QOPMuR-18" style="edgeStyle=orthogonalEdgeStyle;rounded=0;orthogonalLoop=1;jettySize=auto;html=1;exitX=0.5;exitY=1;exitDx=0;exitDy=0;entryX=0.5;entryY=0;entryDx=0;entryDy=0;startArrow=none;startFill=0;" edge="1" parent="1" source="QcO9CsuUAXYOq_QOPMuR-1" target="QcO9CsuUAXYOq_QOPMuR-4">
          <mxGeometry relative="1" as="geometry" />
        </mxCell>
        <mxCell id="QcO9CsuUAXYOq_QOPMuR-1" value="&lt;h1&gt;&lt;font face=&quot;Comic Sans MS&quot;&gt;Statistic figures&lt;/font&gt;&lt;br&gt;&lt;/h1&gt;" style="rounded=1;whiteSpace=wrap;html=1;" vertex="1" parent="1">
          <mxGeometry x="-280" y="436" width="210" height="60" as="geometry" />
        </mxCell>
        <mxCell id="QcO9CsuUAXYOq_QOPMuR-19" style="edgeStyle=orthogonalEdgeStyle;rounded=0;orthogonalLoop=1;jettySize=auto;html=1;exitX=0.5;exitY=1;exitDx=0;exitDy=0;entryX=0.5;entryY=0;entryDx=0;entryDy=0;startArrow=none;startFill=0;" edge="1" parent="1" source="QcO9CsuUAXYOq_QOPMuR-4" target="QcO9CsuUAXYOq_QOPMuR-5">
          <mxGeometry relative="1" as="geometry" />
        </mxCell>
        <mxCell id="QcO9CsuUAXYOq_QOPMuR-4" value="&lt;h1&gt;&lt;font face=&quot;Comic Sans MS&quot;&gt;Results&lt;/font&gt;&lt;br&gt;&lt;/h1&gt;" style="rounded=1;whiteSpace=wrap;html=1;" vertex="1" parent="1">
          <mxGeometry x="-230" y="543" width="110" height="60" as="geometry" />
        </mxCell>
        <mxCell id="QcO9CsuUAXYOq_QOPMuR-5" value="&lt;h1&gt;&lt;font face=&quot;Comic Sans MS&quot;&gt;Suggestions&lt;/font&gt;&lt;/h1&gt;" style="rounded=0;whiteSpace=wrap;html=1;fillColor=#dae8fc;strokeColor=#6c8ebf;" vertex="1" parent="1">
          <mxGeometry x="-275" y="640" width="200" height="60" as="geometry" />
        </mxCell>
        <mxCell id="QcO9CsuUAXYOq_QOPMuR-6" value="&lt;h1&gt;&lt;font face=&quot;Comic Sans MS&quot; style=&quot;font-size: 20px&quot;&gt;Process and plot&lt;/font&gt;&lt;br&gt;&lt;/h1&gt;" style="rounded=1;whiteSpace=wrap;html=1;strokeColor=none;fillColor=none;" vertex="1" parent="1">
          <mxGeometry x="-180" y="385" width="180" height="50" as="geometry" />
        </mxCell>
        <mxCell id="QcO9CsuUAXYOq_QOPMuR-15" value="" style="endArrow=classic;html=1;entryX=0.5;entryY=0;entryDx=0;entryDy=0;" edge="1" parent="1" target="mpLeAalImZek8zaXHOM3-7">
          <mxGeometry width="50" height="50" relative="1" as="geometry">
            <mxPoint x="-175" y="270" as="sourcePoint" />
            <mxPoint x="-70" y="200" as="targetPoint" />
          </mxGeometry>
        </mxCell>
        <mxCell id="QcO9CsuUAXYOq_QOPMuR-22" value="" style="shape=curlyBracket;whiteSpace=wrap;html=1;rounded=1;shadow=0;glass=0;labelBackgroundColor=#CCFFE6;sketch=0;fillColor=none;gradientColor=none;fontColor=#FF3333;direction=west;strokeColor=#3333FF;" vertex="1" parent="1">
          <mxGeometry x="-10" y="-50" width="50" height="240" as="geometry" />
        </mxCell>
        <mxCell id="QcO9CsuUAXYOq_QOPMuR-23" value="&lt;h1 style=&quot;font-family: helvetica; font-style: normal; letter-spacing: normal; text-indent: 0px; text-transform: none; word-spacing: 0px;&quot;&gt;&lt;font face=&quot;Comic Sans MS&quot; style=&quot;font-size: 24px&quot;&gt;Find problems&lt;/font&gt;&lt;/h1&gt;" style="text;whiteSpace=wrap;html=1;labelBackgroundColor=none;fontStyle=1;fontColor=#3333FF;align=center;verticalAlign=middle;labelBorderColor=none;" vertex="1" parent="1">
          <mxGeometry x="60" y="40" width="180" height="60" as="geometry" />
        </mxCell>
        <mxCell id="QcO9CsuUAXYOq_QOPMuR-25" value="" style="shape=curlyBracket;whiteSpace=wrap;html=1;rounded=1;shadow=0;glass=0;labelBackgroundColor=#CCFFE6;sketch=0;fillColor=none;gradientColor=none;fontColor=#FF3333;direction=west;strokeColor=#3333FF;" vertex="1" parent="1">
          <mxGeometry x="80" y="230" width="50" height="150" as="geometry" />
        </mxCell>
        <mxCell id="QcO9CsuUAXYOq_QOPMuR-26" value="&lt;h1 style=&quot;font-family: &amp;#34;helvetica&amp;#34; ; font-style: normal ; letter-spacing: normal ; text-indent: 0px ; text-transform: none ; word-spacing: 0px&quot;&gt;&lt;font face=&quot;Comic Sans MS&quot; style=&quot;font-size: 24px&quot;&gt;Collect data&lt;/font&gt;&lt;/h1&gt;" style="text;whiteSpace=wrap;html=1;labelBackgroundColor=none;fontStyle=1;fontColor=#3333FF;align=center;verticalAlign=middle;labelBorderColor=none;" vertex="1" parent="1">
          <mxGeometry x="150" y="280" width="180" height="60" as="geometry" />
        </mxCell>
        <mxCell id="QcO9CsuUAXYOq_QOPMuR-27" value="" style="shape=curlyBracket;whiteSpace=wrap;html=1;rounded=1;shadow=0;glass=0;labelBackgroundColor=#CCFFE6;sketch=0;fillColor=none;gradientColor=none;fontColor=#FF3333;direction=west;strokeColor=#3333FF;" vertex="1" parent="1">
          <mxGeometry x="-10" y="400" width="50" height="300" as="geometry" />
        </mxCell>
        <mxCell id="QcO9CsuUAXYOq_QOPMuR-28" value="&lt;h1 style=&quot;font-family: &amp;#34;helvetica&amp;#34; ; font-style: normal ; letter-spacing: normal ; text-indent: 0px ; text-transform: none ; word-spacing: 0px&quot;&gt;&lt;font face=&quot;Comic Sans MS&quot; style=&quot;font-size: 24px&quot;&gt;Collect data&lt;/font&gt;&lt;/h1&gt;" style="text;whiteSpace=wrap;html=1;labelBackgroundColor=none;fontStyle=1;fontColor=#3333FF;align=center;verticalAlign=middle;labelBorderColor=none;" vertex="1" parent="1">
          <mxGeometry x="60" y="543" width="180" height="60" as="geometry" />
        </mxCell>
        <mxCell id="QcO9CsuUAXYOq_QOPMuR-29" value="&lt;h1&gt;&lt;font face=&quot;Comic Sans MS&quot; style=&quot;font-size: 20px&quot;&gt;discuss&lt;/font&gt;&lt;br&gt;&lt;/h1&gt;" style="rounded=1;whiteSpace=wrap;html=1;strokeColor=none;fillColor=none;" vertex="1" parent="1">
          <mxGeometry x="-220" y="-10" width="180" height="50" as="geometry" />
        </mxCell>
      </root>
    </mxGraphModel>
  </diagram>
</mxfile>
